<?xml version="1.0" encoding="UTF-8" standalone="no"?>
<svg width="59px" height="48px" viewBox="0 0 59 48" version="1.1" xmlns="http://www.w3.org/2000/svg" xmlns:xlink="http://www.w3.org/1999/xlink">
    <!-- Generator: Sketch 40 (33762) - http://www.bohemiancoding.com/sketch -->
    <title>bouche</title>
    <desc>Created with Sketch.</desc>
    <defs></defs>
    <g id="Page-1" stroke="none" stroke-width="1" fill="none" fill-rule="evenodd">
        <g id="wine-bouche" transform="translate(-200.000000, -38.000000)" fill="#000000">
            <g id="bouche" transform="translate(200.000000, 38.000000)">
                <path d="M47.6152405,21.87525 C50.4599367,8.3355 31.5552911,12.19875 31.5552911,12.19875 L28.7583924,25.50975 C28.7583924,25.50975 44.5016835,36.6945 47.3321899,23.223 L55.3494684,24.92175 C55.3494684,24.92175 56.2060886,27.35475 55.3569367,31.3965 L55.940962,31.52025 L57.339038,24.867 L57.4406076,24.3825 L58.8424177,17.71125 L58.2583924,17.5875 C57.3957975,21.69675 55.6332658,23.57475 55.6332658,23.57475 L47.6152405,21.87525 L47.6152405,21.87525 Z M46.3351646,22.8855 C43.8907722,34.52475 29.8442911,25.01175 29.8442911,25.01175 L32.3290127,13.185 C32.3290127,13.185 49.0611139,9.912 46.5771392,21.73275 L46.3351646,22.8855 L46.3351646,22.8855 Z" id="Shape"></path>
                <path d="M31.3723165,24.708 C32.9339494,25.539 43.7473797,30.8595 45.5472532,22.63425 C45.5472532,22.63425 41.9273418,24.537 37.161038,23.397 C32.3939873,22.25775 31.3723165,24.708 31.3723165,24.708 L31.3723165,24.708 Z" id="Shape"></path>
                <path d="M29.5126962,30.813 C28.8801266,29.7885 30.0668481,29.5785 29.958557,28.18725 C29.8502658,26.796 29.5515316,26.89575 28.1116329,26.6955 C26.672481,26.4945 26.6336456,27.04725 26.445443,26.48925 C26.2572405,25.932 27.6090127,25.37475 28.1280633,24.46425 C28.6471139,23.55375 26.2101899,21.52875 25.5955443,20.86425 C24.9808987,20.19975 26.1131013,18.90825 27.3565823,17.73375 C28.6000633,16.55925 28.3521139,15.14775 27.544038,14.15325 C26.735962,13.15875 17.531962,9.7365 15.9538987,8.742 C14.3758354,7.7475 13.7440127,4.7655 13.0614051,3.5175 C12.8455696,3.12225 12.2779747,1.917 11.2660127,0.5085 C4.66921519,5.27025 0.373417722,13.0425 0.373417722,21.8235 C0.373417722,34.35225 9.11960759,44.82825 20.8150506,47.43375 C24.1653544,45.10125 29.0937215,43.55325 31.2393797,42.74175 C34.169962,41.6325 34.7442785,38.712 34.2162658,36.9855 C33.6875063,35.25975 30.1452658,31.83825 29.5126962,30.813 L29.5126962,30.813 Z M11.9344304,14.9085 C11.8477975,15.069 11.6902152,15.189 11.496038,15.21975 L5.00305063,16.23225 C4.73867089,16.2735 4.47951899,16.1355 4.36525316,15.89325 C4.25098734,15.651 4.30849367,15.36225 4.50789873,15.183 L10.1502405,10.1115 C10.3981899,9.888 10.7790759,9.90975 11.0016329,10.15875 C11.2241899,10.40775 11.2032785,10.791 10.9545823,11.013 L10.3175316,11.58525 C10.7036456,12.048 11.1898354,12.882 11.0688481,14.061 L11.3108228,14.0235 C11.6401772,13.97175 11.9478734,14.19825 11.9986582,14.52825 C12.0210633,14.664 11.9956709,14.796 11.9344304,14.9085 L11.9344304,14.9085 Z M24.3886582,18.201 C24.4446709,19.04175 23.4760253,20.17875 23.1078354,19.434 C22.4872152,18.17775 25.2557342,17.2665 25.2557342,17.2665 C25.6896456,17.2965 24.3602785,17.77425 24.3886582,18.201 L24.3886582,18.201 Z" id="Shape"></path>
            </g>
        </g>
    </g>
</svg>