<?xml version="1.0" encoding="UTF-8" standalone="no"?>
<svg width="90px" height="72px" viewBox="0 0 90 72" version="1.1" xmlns="http://www.w3.org/2000/svg" xmlns:xlink="http://www.w3.org/1999/xlink">
    <!-- Generator: Sketch 40 (33762) - http://www.bohemiancoding.com/sketch -->
    <title>noun_707337_cc</title>
    <desc>Created with Sketch.</desc>
    <defs></defs>
    <g id="Page-1" stroke="none" stroke-width="1" fill="none" fill-rule="evenodd">
        <g id="estate_blue" fill="#000000">
            <g id="Page-1">
                <g id="noun_707337_cc">
                    <path d="M89.279,33.96 L78.613,25.665 L78.613,10.851 C78.613,9.821 77.779,8.985 76.748,8.985 L68.531,8.985 C67.499,8.985 66.664,9.821 66.664,10.851 L66.664,16.371 L47.293,1.304 C45.943,0.255 44.056,0.255 42.707,1.304 L0.721,33.96 C-0.092,34.593 -0.24,35.766 0.394,36.58 L2.688,39.527 C3.321,40.341 4.494,40.489 5.308,39.855 L45,8.984 L84.691,39.856 C85.505,40.49 86.679,40.342 87.312,39.528 L89.605,36.581 C90.24,35.766 90.093,34.593 89.279,33.96 L89.279,33.96 L89.279,33.96 Z" id="Shape"></path>
                    <path d="M11.386,38.615 L11.386,69.616 C11.386,70.646 12.221,71.482 13.252,71.482 L30.061,71.482 L30.061,59.232 C30.061,50.98 36.749,44.292 45,44.292 C53.251,44.292 59.939,50.98 59.939,59.232 L59.939,71.482 L76.748,71.482 C77.779,71.482 78.613,70.646 78.613,69.616 L78.613,38.615 L45,12.469 L11.386,38.615 L11.386,38.615 L11.386,38.615 Z" id="Shape"></path>
                </g>
            </g>
        </g>
    </g>
</svg>