<?xml version="1.0" encoding="UTF-8" standalone="no"?>
<svg width="55px" height="58px" viewBox="0 0 55 58" version="1.1" xmlns="http://www.w3.org/2000/svg" xmlns:xlink="http://www.w3.org/1999/xlink">
    <!-- Generator: Sketch 40 (33762) - http://www.bohemiancoding.com/sketch -->
    <title>nez</title>
    <desc>Created with Sketch.</desc>
    <defs></defs>
    <g id="Page-1" stroke="none" stroke-width="1" fill="none" fill-rule="evenodd">
        <g id="wine-nez" transform="translate(-201.000000, -30.000000)" fill="#000000">
            <g id="nez" transform="translate(201.000000, 30.000000)">
                <path d="M54.4542195,47.214122 C50.4423171,50.1728293 47.3916585,50.4409024 47.3916585,50.4409024 L41.5930732,42.5797805 C54.8114146,32.830122 34.9301463,21.2711463 34.9301463,21.2711463 L31.9297073,23.4843415 C31.7677317,18.8839512 31.1983415,12.2479024 31.375878,10.5411463 C31.636878,8.02097561 34.8813415,5.46685366 35.9882927,3.88812195 C36.2351463,3.538 36.861122,2.73802439 37.5946098,1.57519512 C22.7890488,-2.57887805 7.09792683,5.42158537 1.9055122,20.1351951 C-1.83478049,30.7322195 0.849487805,42.0358537 7.92336585,49.7958293 C7.95378049,49.7689512 7.98560976,49.7413659 8.01602439,49.7137805 C9.79563415,48.0367317 11.8263415,41.6680488 12.6913902,40.2824146 C13.5578537,38.8974878 14.5254634,40.2201707 16.1501707,39.2568049 C17.7755854,38.2941463 17.4756829,37.9885854 16.8553659,36.1120732 C16.2350488,34.2362683 15.5404634,34.5184878 16.1056098,33.9554634 C16.6707561,33.3917317 18.1582439,34.7073415 19.577122,34.797878 C20.6182927,34.8643659 21.4317073,32.6306585 21.9643171,30.9811951 C22.403561,32.754439 27.6999512,52.8266829 40.2781707,43.5488049 L46.0767561,51.4099268 C46.0767561,51.4099268 44.918878,54.2469756 40.9734634,57.156878 L41.3950244,57.7298049 L47.8910244,52.9398537 L48.3649268,52.5897317 L54.8779024,47.7849268 L54.4542195,47.214122 L54.4542195,47.214122 Z M22.675878,25.6635854 C23.8295122,24.1541707 26.5993659,26.9883902 26.5993659,26.9883902 C26.822878,27.5372683 25.4443171,26.1997317 24.9428293,26.4897317 C23.9547073,27.0598293 21.9911951,26.5583415 22.675878,25.6635854 L22.675878,25.6635854 Z M22.4318537,29.5552439 C22.6709268,28.9299756 23.4489756,28.8274146 24.4597317,28.9943415 L22.0258537,30.7895122 C22.1913659,30.2724634 22.327878,29.827561 22.4318537,29.5552439 L22.4318537,29.5552439 Z M39.6557317,42.4616585 C28.2933902,50.8433659 23.2940732,31.2768537 23.2940732,31.2768537 L25.9026585,29.3522439 C25.9090244,29.3543659 26.1997317,29.3564878 26.2075122,29.3586098 L32.5365854,24.9003902 L32.5365854,24.8791707 L35.1253659,22.7586341 C35.1253659,22.7586341 52.4659512,33.118 40.9239512,41.6312683 L39.6557317,42.4616585 L39.6557317,42.4616585 Z" id="Shape"></path>
                <path d="M31.9608293,28.6746341 C32.0782439,28.4192927 31.9374878,27.1008537 31.9608293,26.3270488 L27.2366585,29.812 C27.2550488,29.8197805 27.275561,29.8261463 27.2939512,29.8332195 C29.4675366,30.6480488 31.2372439,30.2554878 31.9608293,28.6746341 L31.9608293,28.6746341 Z" id="Shape"></path>
                <path d="M43.410878,33.9512195 L25.6529756,33.9512195 C26.3871707,35.3658537 31.0582927,47.3980244 39.1514146,41.5329512 L40.1657073,40.742878 C43.1887805,38.5134146 43.7984878,36.7804878 43.410878,33.9512195 L43.410878,33.9512195 Z" id="Shape"></path>
                <path d="M40.8510976,15.3487805 C40.3694146,15.3417073 39.872878,15.3339268 39.3989756,15.3339268 C36.0363902,15.3339268 34.6924878,17.9771707 34.4505854,19.374122 C34.3968293,19.6902927 34.6083171,19.9901951 34.9244878,20.0446585 C34.958439,20.0503171 34.9909756,20.0531463 35.0235122,20.0531463 C35.3007805,20.0531463 35.5455122,19.8536829 35.5950244,19.5707561 C35.6169512,19.445561 36.1637073,16.4932195 39.3996829,16.4932195 C39.8636829,16.4932195 40.3347561,16.5002927 40.834122,16.5080732 C43.9972439,16.5561707 47.5833415,16.6092195 49.5489756,14.6725854 C50.5109268,13.7261951 50.9982683,12.3815854 50.9982683,10.6762439 C50.9982683,10.3558293 50.7386829,10.0962439 50.4182683,10.0962439 C50.0978537,10.0962439 49.8382683,10.3558293 49.8382683,10.6762439 C49.8382683,12.0781463 49.4768293,13.1150732 48.735561,13.8457317 C47.1143902,15.4428537 43.7871707,15.3926341 40.8510976,15.3487805 L40.8510976,15.3487805 Z" id="Shape"></path>
                <path d="M33.294122,14.9250976 C33.2106585,15.2341951 33.394561,15.5531951 33.7029512,15.6359512 C33.7545854,15.6493902 33.8055122,15.6557561 33.8543171,15.6557561 C34.1103659,15.6557561 34.3444878,15.4852927 34.4152195,15.2264146 C34.710878,14.125122 35.1175854,13.2133902 37.1030244,13.2133902 C39.8226585,13.2133902 43.5452683,13.2133902 44.7017317,10.3275366 C45.8023171,7.57890244 45.4373415,5.48382927 45.4217805,5.39612195 C45.3651951,5.08136585 45.0624634,4.872 44.7477073,4.93 C44.4322439,4.98729268 44.2235854,5.28931707 44.2801707,5.60478049 C44.2844146,5.62317073 44.602,7.45512195 43.6244878,9.89607317 C42.7601463,12.0519756 39.4909268,12.0519756 37.1030244,12.0519756 C34.0665122,12.0519756 33.5452195,13.9928537 33.294122,14.9250976 L33.294122,14.9250976 Z" id="Shape"></path>
            </g>
        </g>
    </g>
</svg>