<?xml version="1.0" encoding="UTF-8" standalone="no"?>
<svg width="57px" height="84px" viewBox="0 0 57 84" version="1.1" xmlns="http://www.w3.org/2000/svg" xmlns:xlink="http://www.w3.org/1999/xlink">
    <!-- Generator: Sketch 40 (33762) - http://www.bohemiancoding.com/sketch -->
    <title>Slice 1</title>
    <desc>Created with Sketch.</desc>
    <defs></defs>
    <g id="Page-1" stroke="none" stroke-width="1" fill="none" fill-rule="evenodd">
        <g id="noun_248503_cc" fill="#7EBDC2">
            <path d="M45.7,50.2 C45,50.2 44.4,50.2 43.7,50.3 L43.7,50.2 L38.4,12.9 C37.6,6.3 33.8,0.2 28.2,0.2 C22.6,0.2 18.8,6.1 18,12.9 L11.6,50.2 L11.6,50.3 C11,50.2 10.5,50.2 9.9,50.2 C1.9,50.2 0.6,56.2 0.6,63.6 C0.6,70.6 5.4,76.3 11.6,77 L7,70.9 L9.9,71.4 C12.4,71.8 14.1,75.5 14.7,77 C16.9,81.1 21.3,83.8 26.4,83.8 C31.7,83.8 36.2,80.9 38.3,76.6 C38.3,76.5 38.4,76.4 38.5,76.2 C39.5,73.9 41.1,71 43.3,70.6 L46.2,70.1 L41,76.9 C41.6,77 42.2,77 42.8,77 C49.7,77 55.3,71 55.3,63.6 C55.3,56.2 53.9,50.2 45.7,50.2 L45.7,50.2 Z M21.1,41.2 C21,41.8 20.5,42.3 19.9,42.3 L19.8,42.3 C19.2,42.2 18.7,41.7 18.8,41 L21.1,18.6 C21.2,18 21.7,17.5 22.4,17.6 C23,17.7 23.5,18.2 23.5,18.9 L21.1,41.2 L21.1,41.2 Z" id="Shape"></path>
        </g>
    </g>
</svg>