<?xml version="1.0" encoding="UTF-8" standalone="no"?>
<svg width="60px" height="49px" viewBox="0 0 60 49" version="1.1" xmlns="http://www.w3.org/2000/svg" xmlns:xlink="http://www.w3.org/1999/xlink">
    <!-- Generator: Sketch 40 (33762) - http://www.bohemiancoding.com/sketch -->
    <title>oeil</title>
    <desc>Created with Sketch.</desc>
    <defs></defs>
    <g id="Page-1" stroke="none" stroke-width="1" fill="none" fill-rule="evenodd">
        <g id="wine-oeil" transform="translate(-200.000000, -45.000000)" fill="#000000">
            <g id="Group-6" transform="translate(196.000000, 29.000000)">
                <g id="oeil" transform="translate(4.000000, 16.000000)">
                    <path d="M27.6751405,29.1066901 C29.1706067,28.322 29.3065581,26.9223944 28.7967401,25.7705493 C28.2876158,24.6173239 20.4045116,18.9623099 19.1601395,17.6068732 C17.9157674,16.2521268 18.0968049,13.2665775 17.7742669,11.9063099 C17.4912659,10.7123662 16.2711709,2.91101408 8.77164408,0.213253521 C3.49936299,5.31822535 0.222655207,12.4535915 0.222655207,20.3522535 C0.222655207,35.8707606 12.8661416,48.4506479 28.4631041,48.4506479 C28.6607887,48.4506479 28.8570859,48.4471972 29.0533832,48.4423662 C28.579634,46.4554507 26.5861416,43.0502958 26.2899616,42.0399296 C25.9563256,40.9046479 27.1431264,41.0185211 27.4060121,39.6748169 C27.6695915,38.3318028 27.357458,38.3469859 26.0367867,37.7776197 C24.7168089,37.2103239 24.5343842,37.7224085 24.50109,37.1447606 C24.4684894,36.568493 25.9043033,36.397338 26.6395511,35.6733803 C27.3754924,34.9487324 25.5817654,32.3924507 25.1704429,31.6036197 C24.7591203,30.8127183 26.1796744,29.8906901 27.6751405,29.1066901 L27.6751405,29.1066901 Z M13.7907503,18.4398732 L13.0319191,18.8139296 C13.2788514,19.3522394 13.5237027,20.2694366 13.097814,21.3515775 L13.3391972,21.3798732 C13.6665905,21.417831 13.9010374,21.7125211 13.8628878,22.0389577 C13.8469343,22.1728451 13.7872821,22.2908592 13.701272,22.3812676 C13.575725,22.5110141 13.3939939,22.5820986 13.2004712,22.5600141 L6.7372275,21.809831 C6.47434176,21.7801549 6.26347826,21.5807042 6.21839232,21.3219014 C6.17330637,21.0624085 6.30440243,20.8042958 6.54162386,20.687662 L13.260817,17.3763662 C13.5556097,17.2307465 13.9142164,17.350831 14.0598787,17.644831 C14.2069282,17.9381408 14.0869302,18.2949437 13.7907503,18.4398732 L13.7907503,18.4398732 Z" id="Shape"></path>
                    <path d="M38.0220182,21.6207324 L38.912639,21.9257746 L39.1366815,18.2583662 C38.2183155,17.9691972 37.2312801,18.458507 36.9163721,19.3708732 C36.597996,20.2949718 37.0925541,21.3032676 38.0220182,21.6207324 L38.0220182,21.6207324 Z" id="Shape"></path>
                    <path d="M55.4480829,13.0885211 L56.1195167,11.7323944 L42.7227482,11.7323944 C42.8267927,13.1126761 43.51418,14.3583803 45.2475612,15.6661972 L46.031363,16.2576479 C52.0763478,20.8187887 55.4480829,13.0885211 55.4480829,13.0885211 L55.4480829,13.0885211 Z" id="Shape"></path>
                    <path d="M59.5481294,8.00494366 L49.504368,0.427197183 C49.504368,0.427197183 33.8831284,9.20785915 44.0475814,16.8767042 L43.3733731,17.7248873 C43.3484024,16.7683521 42.5625197,16.0002254 41.5962932,16.0002254 C40.612726,16.0002254 39.8157452,16.7931972 39.8157452,17.7718169 L39.3385278,25.5931831 C39.3385278,25.5931831 38.6580768,26.8630423 38.0684914,28.2502254 C37.6412154,27.601493 37.4795996,27.195 37.4795996,27.195 L38.7080182,25.6325211 L38.7329889,24.8802676 L38.901541,22.084507 L36.0916461,22.084507 C35.1087725,22.084507 34.3110981,22.8312394 34.3110981,23.8098592 C34.3110981,24.7877887 35.1087725,25.5352113 36.0916461,25.5352113 L37.0599535,25.5352113 L36.4620445,26.3578592 C36.4620445,26.3578592 34.0828938,26.1521972 31.033003,23.8512676 L30.6986734,24.3081408 L37.5760142,29.507662 C37.4275774,29.9424507 37.3117412,30.3565352 37.2548635,30.7064366 C37.1015713,31.6698732 37.2396036,34.9018028 37.5572861,37.632 C37.7854904,42.9157183 37.3942831,46.1096901 37.7646815,46.9185352 C38.0643296,47.5700282 45.8295167,46.9171549 46.5058059,46.9171549 C46.7520445,46.9171549 46.805454,42.6796901 47.0447563,42.5706479 C47.0447563,42.5706479 54.4964226,31.4566197 53.8430233,29.9024225 C52.8719414,27.5939014 53.7355106,26.641507 52.709632,25.661507 C51.6844469,24.681507 48.4250799,21.3039577 47.0988595,20.7228592 C46.6140121,20.5096056 45.5111405,20.124507 44.3076926,19.7214648 C44.3076926,19.7214648 44.5247988,21.5261831 44.4956663,22.7470423 C44.4672275,23.9685915 44.4235288,25.8685493 44.3943964,26.4241127 C44.3805238,26.6946479 43.9657331,27.6104648 43.5419252,28.478662 L43.6855066,22.7477324 L43.4912902,19.6227746 L45.0637492,17.6427606 C55.2788372,25.3502535 59.5481294,8.00494366 59.5481294,8.00494366 L59.5481294,8.00494366 Z M49.4904954,1.53211268 L58.4140445,8.26443662 C58.4140445,8.26443662 54.514457,23.5607183 45.5950698,16.8318451 L44.7252578,16.1755211 C35.9432093,9.54947887 49.4904954,1.53211268 49.4904954,1.53211268 L49.4904954,1.53211268 Z" id="Shape"></path>
                </g>
            </g>
        </g>
    </g>
</svg>