<?xml version="1.0" encoding="UTF-8" standalone="no"?>
<svg width="35px" height="49px" viewBox="0 0 35 49" version="1.1" xmlns="http://www.w3.org/2000/svg" xmlns:xlink="http://www.w3.org/1999/xlink">
    <!-- Generator: Sketch 40 (33762) - http://www.bohemiancoding.com/sketch -->
    <title>somelier</title>
    <desc>Created with Sketch.</desc>
    <defs></defs>
    <g id="Page-1" stroke="none" stroke-width="1" fill="none" fill-rule="evenodd">
        <g id="wine-commentaire" transform="translate(-214.000000, -40.000000)" fill="#000000">
            <g id="sommelier-circle" transform="translate(196.000000, 29.000000)">
                <g id="somelier" transform="translate(18.000000, 11.000000)">
                    <path d="M34.1188235,41.385098 C33.6638235,41.51 33.2060784,41.6211765 32.7455882,41.7227451 C32.3997059,41.7996078 32.0517647,41.8648039 31.7017647,41.9183333 C31.5514706,41.9402941 30.9393137,42.1001961 31.1012745,41.8551961 C31.4066667,41.3953922 32.41,41.2320588 32.8979412,41.0954902 C33.3728431,40.9630392 33.8559804,40.8498039 34.3398039,40.7530392 C34.5957843,40.7022549 34.1586275,40.5210784 34.0460784,40.5354902 C33.5780392,40.592451 33.1093137,40.6343137 32.6392157,40.6693137 C32.192451,40.7029412 31.7436275,40.7214706 31.2954902,40.7187255 C31.1548039,40.7173529 30.3401961,40.7585294 30.5742157,40.4757843 C30.9454902,40.0297059 32.1004902,40.055098 32.6220588,40.0036275 C33.1758824,39.950098 33.732451,39.9192157 34.2890196,39.907549 C34.6019608,39.9006863 34.2423529,39.6851961 34.0968627,39.6851961 C33.7063725,39.6845098 30.9351961,39.674902 30.9839216,39.3235294 C31.0793137,38.6441176 33.5588235,38.9110784 34.062549,38.9529412 C34.3459804,38.9762745 34.0714706,38.7491176 33.9287255,38.7360784 C33.1072549,38.6612745 32.277549,38.5651961 31.4718627,38.3819608 C31.3270588,38.3490196 30.8617647,38.2906863 31.0388235,38.0779412 C31.2323529,37.8452941 31.7594118,37.9139216 32.0222549,37.9214706 C32.2096078,37.9269608 32.4202941,37.9406863 32.6344118,37.9619608 C32.6872549,38.0161765 32.8444118,38.0271569 32.9617647,37.9990196 C33.2747059,38.0477451 33.5807843,38.1246078 33.8292157,38.2515686 C33.9582353,38.317451 34.3830392,38.2948039 34.1057843,38.1527451 C33.7990196,37.9955882 33.4503922,37.9001961 33.0942157,37.8363725 C33.0818627,36.2394118 32.9816667,34.6280392 32.7435294,33.0496078 C32.6426471,32.3804902 32.5246078,31.620098 32.13,31.0504902 C31.842451,30.6352941 31.2344118,30.372451 30.8672549,30.037549 C30.4795098,29.6834314 30.434902,29.1927451 30.3703922,28.7102941 C30.1802941,27.2814706 29.7733333,25.4148039 30.142549,24.0992157 C30.4019608,23.177549 30.1535294,22.8419608 29.345098,22.8241176 C28.9552941,22.8151961 27.6232353,22.652549 27.5916667,23.3566667 C27.5566667,24.1211765 27.9039216,24.4327451 27.8984314,25.1327451 C27.8901961,26.2911765 27.8215686,27.4516667 27.7234314,28.6059804 C27.6911765,28.9848039 27.6520588,29.3643137 27.5820588,29.7390196 C27.4688235,30.337451 26.759902,30.710098 26.3344118,31.0861765 C25.9597059,31.4183333 25.8718627,31.9110784 25.7915686,32.3811765 C25.725,32.7737255 25.6810784,33.1703922 25.6488235,33.5711765 C24.8328431,33.4709804 24.0161765,33.3707843 23.2008824,33.2712745 C23.1727451,33.2678431 23.1260784,33.2657843 23.0759804,33.2664706 C22.6765686,27.3212745 22.2778431,21.3760784 21.8784314,15.4308824 C21.8777451,15.4178431 21.8688235,15.4082353 21.859902,15.3993137 C22.2709804,15.310098 22.7005882,15.2551961 23.0890196,15.1419608 C23.5371569,15.0115686 24.4087255,14.7583333 24.5089216,14.2017647 C24.6365686,13.4894118 23.8089216,13.132549 23.2502941,13.0151961 C22.917451,12.9451961 22.5784314,12.9294118 22.2380392,12.9403922 C21.8866667,8.89411765 21.0322549,4.92470588 20.1641176,0.963529412 C20.1455882,0.876372549 20.0062745,0.836568627 19.8834314,0.834509804 C18.4834314,0.566862745 16.9811765,0.653333333 15.5756863,0.773431373 C11.3118627,1.13921569 7.17019608,2.5172549 3.29,4.2672549 C3.10470588,4.35098039 3.56245098,4.46970588 3.6345098,4.46009804 C5.2822549,4.24117647 6.93068627,4.02294118 8.57843137,3.80401961 C6.42490196,4.77715686 4.27205882,5.75098039 2.11852941,6.72480392 C1.93598039,6.80715686 2.38686275,6.93068627 2.46235294,6.91764706 C4.63098039,6.55598039 6.80029412,6.195 8.96892157,5.83333333 C6.47911765,7.41794118 3.98862745,9.00254902 1.49813725,10.5864706 C1.37941176,10.6619608 1.81039216,10.7745098 1.87078431,10.7621569 C4.23980392,10.2652941 6.60813725,9.7677451 8.97647059,9.27088235 C9.60715686,11.0167647 9.89196078,12.9451961 10.2790196,14.7487255 C10.612549,16.302451 10.935098,17.8589216 11.2473529,19.417451 C11.2514706,19.4394118 11.2713725,19.4586275 11.2953922,19.4771569 C10.7580392,21.6011765 10.2151961,23.7245098 9.66686275,25.8457843 C9.6654902,25.849902 9.66343137,25.8547059 9.66343137,25.8595098 C9.66137255,25.8684314 9.65931373,25.8766667 9.65656863,25.8855882 C9.63254902,25.9796078 9.81303922,26.0022549 9.95647059,25.9741176 C9.97431373,25.9748039 9.99215686,25.9741176 10.0058824,25.9713725 C10.7779412,25.8052941 11.5554902,25.6357843 12.3364706,25.4944118 C12.545098,27.4420588 12.7983333,29.4706863 13.4489216,31.3236275 C13.4756863,31.3984314 13.6438235,31.4354902 13.7714706,31.4279412 C13.8092157,31.4361765 13.8428431,31.4416667 13.8661765,31.4368627 C15.4576471,31.1136275 17.0491176,30.7903922 18.6405882,30.4671569 C18.8114706,31.4471569 18.9823529,32.4257843 19.152549,33.4057843 C18.9830392,33.4709804 18.3420588,33.4737255 18.110098,33.495 C17.5096078,33.5505882 16.9077451,33.5972549 16.3058824,33.6452941 C15.5118627,33.7077451 14.7171569,33.7660784 13.922451,33.8216667 C13.8654902,33.8257843 13.7220588,33.8360784 13.6946078,33.9047059 C12.5155882,36.8783333 10.8602941,39.6213725 9.5495098,42.5339216 C9.4904902,42.6643137 9.95852941,42.6855882 10.0148039,42.56 C10.2460784,42.0459804 10.4883333,41.5381373 10.737451,41.0323529 C10.9611765,41.0488235 11.2514706,40.9891176 11.3928431,40.9815686 C12.3316667,40.9328431 13.2691176,40.8683333 14.2079412,40.8106863 C15.8872549,40.7077451 17.7065686,40.8765686 19.3536275,40.5409804 C19.4023529,41.412549 19.4476471,42.2820588 19.4778431,43.1460784 C19.4819608,43.2778431 19.9122549,43.2545098 19.95,43.1467647 C20.2759804,42.2209804 20.5992157,41.2945098 20.9231373,40.3680392 C22.524902,40.2198039 24.1321569,40.1148039 25.7332353,39.9562745 C25.8046078,41.4331373 25.9013725,42.9106863 26.0070588,44.3854902 C26.059902,45.1204902 26.1161765,45.8554902 26.1738235,46.5898039 C26.1992157,46.915098 26.1161765,47.6322549 26.2815686,47.9170588 C26.7255882,48.6795098 29.0891176,48.4317647 29.7843137,48.4104902 C30.4280392,48.3912745 32.9157843,48.3452941 33.1148039,47.4298039 C33.4888235,45.7065686 33.1072549,43.6813725 33.094902,41.9238235 C33.5643137,41.8222549 34.0316667,41.7097059 34.4935294,41.5827451 C34.6568627,41.5395098 34.2402941,41.3514706 34.1188235,41.385098 L34.1188235,41.385098 Z M22.4109804,36.0918627 C23.465098,36.2023529 24.5363725,36.1296078 25.5973529,36.1014706 C25.6090196,36.6182353 25.6261765,37.1336275 25.6412745,37.6414706 C24.379902,37.7533333 23.0643137,37.5392157 21.8255882,37.7855882 C22.0218627,37.220098 22.2160784,36.6559804 22.4109804,36.0918627 L22.4109804,36.0918627 Z M25.6316667,33.7701961 C25.585,34.467451 25.5795098,35.1722549 25.5911765,35.875 C24.5576471,35.8969608 23.5097059,35.9786275 22.4796078,35.8894118 C22.582549,35.5895098 22.687549,35.2909804 22.7898039,34.9910784 C22.8762745,34.7371569 22.9853922,34.4722549 23.0842157,34.2032353 C23.1144118,34.1826471 23.135,34.1586275 23.1329412,34.1291176 C23.1315686,34.109902 23.1301961,34.0906863 23.1295098,34.0707843 C23.1967647,33.8779412 23.2530392,33.6837255 23.2907843,33.4901961 C24.0546078,33.5842157 24.8191176,33.6768627 25.5829412,33.7701961 C25.5973529,33.7729412 25.6145098,33.7715686 25.6316667,33.7701961 L25.6316667,33.7701961 Z M20.2951961,29.8447059 C18.1492157,30.2804902 16.002549,30.7169608 13.8565686,31.1527451 C13.2485294,29.3368627 13.0062745,27.3727451 12.8045098,25.4765686 C12.802451,25.4546078 12.7880392,25.4347059 12.7688235,25.4182353 C13.0941176,25.3640196 13.420098,25.3173529 13.7460784,25.2789216 C14.0535294,25.2432353 13.6541176,25.0840196 13.5134314,25.1004902 C12.39,25.2295098 11.2748039,25.4703922 10.1678431,25.709902 C10.7292157,23.5364706 11.2857843,21.3609804 11.8368627,19.1834314 C12.2445098,17.5734314 12.6487255,15.9627451 13.039902,14.3486275 C13.2258824,13.5813725 13.5120588,12.7605882 13.5669608,11.9679412 C13.5751961,11.8505882 13.1009804,11.8759804 13.09,12.0269608 C13.0323529,12.8621569 12.724902,13.7316667 12.5293137,14.5407843 C12.2026471,15.8893137 11.8629412,17.2344118 11.5232353,18.5788235 C11.2679412,17.3229412 11.009902,16.0677451 10.7422549,14.8152941 C10.3455882,12.9596078 10.0559804,10.9707843 9.38686275,9.18647059 C12.5553922,8.52147059 15.7239216,7.85647059 18.8931373,7.19147059 C19.934902,9.0704902 20.8339216,11.040098 21.7754902,12.969902 C21.3863725,13.0028431 20.9972549,13.0522549 20.6156863,13.0790196 C20.2876471,13.1023529 20.5429412,13.2773529 20.7447059,13.2636275 C21.4687255,13.2128431 22.1817647,13.0920588 22.9085294,13.1689216 C23.6023529,13.2416667 24.5061765,13.9663725 23.7389216,14.5764706 C22.932549,15.2181373 21.7857843,15.0671569 20.8840196,15.454902 C20.6534314,15.5544118 21.1132353,15.6360784 21.2244118,15.5880392 C21.2820588,15.5633333 21.3458824,15.5482353 21.4055882,15.5283333 C21.8207843,21.7137255 22.2359804,27.8991176 22.6511765,34.0851961 C22.5454902,34.385098 22.4212745,34.6822549 22.3245098,34.9643137 C21.9443137,36.0822549 21.5565686,37.1981373 21.1681373,38.3140196 C20.9471569,38.9501961 20.7227451,39.5863725 20.4997059,40.2218627 C20.4962745,40.2273529 20.4935294,40.2328431 20.4942157,40.2376471 C20.2993137,40.7962745 20.1037255,41.354902 19.9081373,41.9128431 C19.7736275,39.0956863 19.5334314,36.2373529 19.6363725,33.4346078 C19.6363725,33.4332353 19.6377451,33.432549 19.6377451,33.4318627 C19.6377451,33.4304902 19.6370588,33.4291176 19.6363725,33.4277451 C19.6370588,33.4243137 19.6370588,33.4201961 19.6370588,33.4167647 C19.6370588,33.4112745 19.6329412,33.4078431 19.6329412,33.4030392 C19.4565686,32.3921569 19.2801961,31.3819608 19.1038235,30.3717647 C19.6240196,30.2667647 20.1435294,30.1603922 20.6623529,30.0553922 C20.825,30.0251961 20.4194118,29.8193137 20.2951961,29.8447059 L20.2951961,29.8447059 Z M13.9471569,34.0145098 C14.2422549,33.9932353 14.5373529,33.9719608 14.8331373,33.95 C15.9298039,33.8703922 17.0264706,33.7866667 18.1217647,33.6878431 C18.3770588,33.6658824 18.7998039,33.6830392 19.1546078,33.6260784 C19.1347059,34.2505882 19.1319608,34.8778431 19.1395098,35.5064706 C17.2138235,35.4941176 15.3142157,35.5888235 13.3953922,35.6293137 C13.7117647,34.8682353 14.0452941,34.0076471 13.9471569,34.0145098 L13.9471569,34.0145098 Z M13.3013725,35.855098 C13.3212745,35.859902 13.3398039,35.8640196 13.3535294,35.8633333 C15.2888235,35.8297059 17.2028431,35.7308824 19.1415686,35.735 C19.1552941,36.5091176 19.1848039,37.2859804 19.222549,38.0621569 C18.3640196,38.1726471 17.3812745,37.9317647 16.5110784,37.9852941 C15.0479412,38.0758824 13.634902,38.3840196 12.1635294,38.2323529 C12.4140196,37.7437255 12.6638235,37.2530392 12.9067647,36.7602941 C12.9465686,36.6793137 13.1126471,36.3032353 13.3013725,35.855098 L13.3013725,35.855098 Z M15.0534314,40.5636275 C14.2573529,40.6089216 13.4626471,40.6610784 12.6665686,40.7104902 C12.3598039,40.7290196 11.0311765,40.8985294 10.9563725,40.8395098 C10.9323529,40.8202941 10.8939216,40.8134314 10.8506863,40.8120588 C11.2439216,40.0187255 11.6501961,39.2315686 12.0544118,38.4437255 C13.5244118,38.5796078 14.9470588,38.3181373 16.4136275,38.1884314 C17.3318627,38.1067647 18.3214706,38.3696078 19.230098,38.255 C19.265098,38.9543137 19.304902,39.6529412 19.3440196,40.3501961 C17.9659804,40.6329412 16.457549,40.4840196 15.0534314,40.5636275 L15.0534314,40.5636275 Z M20.9986275,40.1539216 C21.21,39.5493137 21.4220588,38.9460784 21.6334314,38.3414706 C21.672549,38.2289216 21.7109804,38.1163725 21.750098,38.0038235 C22.9943137,37.6956863 24.36,37.94 25.6481373,37.8336275 C25.6481373,37.8446078 25.6481373,37.8555882 25.6488235,37.8665686 C25.6673529,38.4938235 25.6927451,39.1203922 25.7229412,39.7476471 C24.1513725,39.9082353 22.5729412,40.0139216 20.9986275,40.1539216 L20.9986275,40.1539216 Z" id="Shape"></path>
                    <path d="M10.1623529,27.2306863 C9.04852941,27.1778431 7.66294118,26.7921569 6.69941176,26.2101961 C6.62666667,26.1292157 6.25264706,26.1388235 6.23343137,26.2733333 C5.95754902,28.2710784 4.1595098,29.8323529 3.76284314,31.7992157 C3.52676471,32.9720588 3.83421569,35.0535294 5.10656863,35.6595098 C4.77372549,36.995 4.31666667,38.3023529 3.90970588,39.6158824 C3.69833333,40.3007843 3.48627451,40.977451 3.23784314,41.6493137 C3.12323529,41.9581373 2.98186275,42.2868627 2.93176471,42.6135294 C2.82333333,42.5764706 2.6654902,42.5586275 2.60441176,42.5915686 C1.90235294,42.9751961 1.17215686,42.8132353 0.446078431,42.7741176 C0.358235294,42.7693137 0.0809803922,42.8091176 0.262156863,42.9223529 C1.57911765,43.7431373 3.06970588,44.1048039 4.59460784,44.3010784 C4.63784314,44.3065686 4.94735294,44.2729412 4.81352941,44.1748039 C4.24323529,43.7596078 3.31470588,43.5489216 3.39980392,42.6766667 C3.47872549,41.8771569 3.97284314,41.0433333 4.20068627,40.2740196 C4.64264706,38.7793137 5.1745098,37.3072549 5.55813725,35.7960784 C5.61098039,35.805 5.66039216,35.8187255 5.71529412,35.8235294 C7.19215686,35.9484314 8.12617647,34.6939216 8.63813725,33.4510784 C9.45068627,31.480098 9.37862745,29.2771569 10.3359804,27.3391176 C10.3792157,27.2519608 10.2090196,27.2327451 10.1623529,27.2306863 L10.1623529,27.2306863 Z M3.94127451,43.9407843 C4.51156863,44.2262745 3.61254902,43.9497059 3.53431373,43.9352941 C2.86519608,43.8076471 2.21872549,43.6031373 1.59009804,43.345098 C1.28539216,43.2201961 1.02941176,42.9971569 0.693137255,42.9786275 C1.01843137,42.9964706 1.34509804,43.0548039 1.67176471,43.0458824 C2.1322549,43.0314706 2.51176471,42.9676471 2.91392157,42.7679412 C2.90294118,42.9772549 2.93656863,43.1831373 3.05323529,43.3828431 C3.21656863,43.6594118 3.67843137,43.8090196 3.94127451,43.9407843 L3.94127451,43.9407843 Z M8.35539216,32.8011765 L4.15676471,32.8011765 C4.15607843,32.3008824 4.23019608,31.8101961 4.35509804,31.3970588 C4.8595098,29.7239216 6.28970588,28.2642157 6.65892157,26.537549 C7.61352941,27.027549 8.84127451,27.3658824 9.85764706,27.4139216 C9.32852941,27.3892157 8.61686275,31.527451 8.35539216,32.8011765 L8.35539216,32.8011765 Z" id="Shape"></path>
                    <path d="M2.99696078,40.207451 C3.61392157,40.0104902 3.07176471,39.6076471 2.76637255,39.4161765 C2.63666667,39.3351961 2.50284314,39.2597059 2.36833333,39.184902 C2.67235294,39.2418627 2.97911765,39.2645098 3.27421569,39.2281373 C3.65852941,39.1821569 3.95431373,38.9090196 3.57892157,38.690098 C3.73401961,38.675 3.87745098,38.6283333 3.99343137,38.5315686 C4.18696078,38.3709804 4.27068627,38.1582353 4.13892157,38.0292157 C4.19245098,38.0127451 4.24598039,37.994902 4.29539216,37.9640196 C5.10382353,37.4534314 2.15970588,35.8310784 1.55235294,35.882549 C1.24215686,35.9079412 1.62235294,36.0946078 1.76715686,36.0822549 C2.19676471,36.0465686 2.88578431,36.6161765 3.21862745,36.8467647 C3.46156863,37.0142157 3.71205882,37.2084314 3.89186275,37.4438235 C3.98107843,37.5604902 4.01882353,37.8713725 3.77931373,37.8480392 C3.72990196,37.8432353 3.6804902,37.8322549 3.63039216,37.819902 C3.53980392,37.7876471 3.44441176,37.7608824 3.35862745,37.7245098 C3.02029412,37.5721569 2.68745098,37.317549 2.41843137,37.1356863 C2.1995098,36.9867647 1.9895098,36.8254902 1.78156863,36.6621569 C1.72392157,36.61 1.66558824,36.5626471 1.60794118,36.5077451 C1.54823529,36.4514706 1.33686275,36.4514706 1.2304902,36.4933333 C1.18519608,36.5029412 1.16186275,36.520098 1.17078431,36.5441176 C1.16735294,36.5592157 1.17078431,36.5770588 1.19137255,36.5962745 C1.73696078,37.119902 2.32509804,37.5989216 3.02578431,37.8953922 C3.14862745,37.947549 3.7422549,38.095098 3.7422549,38.1198039 C3.74980392,38.7216667 2.92421569,38.3682353 2.65039216,38.2522549 C2.3504902,38.1246078 1.41990196,37.7601961 1.33960784,37.3772549 C1.30803922,37.2269608 0.835882353,37.2578431 0.859215686,37.3690196 C0.860588235,37.3765686 0.866764706,37.3834314 0.868823529,37.3902941 C0.866078431,37.4005882 0.861960784,37.4095098 0.866764706,37.4218627 C1.03833333,37.8610784 1.65529412,38.0944118 2.04647059,38.2735294 C2.31480392,38.3963725 2.58862745,38.5061765 2.86107843,38.6187255 C2.98735294,38.6708824 3.11362745,38.7237255 3.23647059,38.7841176 C3.34284314,38.8362745 3.31745098,38.7896078 3.29343137,38.8561765 C3.13352941,39.2995098 2.13911765,38.9227451 1.85568627,38.8246078 C1.80215686,38.8067647 1.60039216,38.7271569 1.40068627,38.6255882 C1.22362745,38.5116667 1.05960784,38.3771569 0.957352941,38.2055882 C0.971078431,38.1767647 0.999215686,38.1486275 1.05068627,38.1246078 C1.20578431,38.0511765 0.764509804,37.9269608 0.649901961,37.9811765 C0.498921569,38.052549 0.452941176,38.1369608 0.46872549,38.2234314 C0.468039216,38.2330392 0.464607843,38.2412745 0.470098039,38.2522549 C0.472843137,38.2577451 0.476960784,38.2632353 0.480392157,38.2680392 C0.493431373,38.2996078 0.514705882,38.3311765 0.540098039,38.3620588 C0.776862745,38.6955882 1.24490196,38.9110784 1.57705882,39.0991176 C1.96137255,39.3152941 2.55362745,39.5280392 2.80686275,39.9102941 C2.93931373,40.1086275 2.60990196,40.0194118 2.52,39.997451 C2.21529412,39.9253922 1.92019608,39.8087255 1.63676471,39.6776471 C1.36156863,39.5506863 0.428921569,39.114902 0.783039216,38.7010784 C0.852352941,38.620098 0.413137255,38.5748039 0.317058824,38.6866667 C-0.330784314,39.4429412 2.41431373,40.3934314 2.99696078,40.207451 L2.99696078,40.207451 Z" id="Shape"></path>
                    <path d="M5.39960784,38.1273529 C5.36803922,38.1321569 5.31519608,38.1493137 5.28980392,38.1753922 C5.22117647,38.1843137 5.16833333,38.2076471 5.16490196,38.2495098 C5.12372549,38.865098 5.51147059,39.9144118 6.29245098,39.7195098 C6.67813725,39.6234314 6.84490196,39.0078431 6.70215686,38.6887255 C6.49764706,38.2323529 5.85186275,38.0559804 5.39960784,38.1273529 L5.39960784,38.1273529 Z M6.1627451,39.3159804 C6.13186275,39.3763725 6.0927451,39.4312745 6.04882353,39.4834314 C6.04539216,39.487549 6.04058824,39.4902941 6.03647059,39.4944118 C5.90882353,39.3736275 5.82647059,39.1560784 5.7722549,39.0140196 C5.68852941,38.7957843 5.63088235,38.5528431 5.64323529,38.3167647 C5.95205882,38.2838235 6.25264706,38.5809804 6.29107843,38.8747059 C6.31235294,39.0277451 6.22862745,39.184902 6.1627451,39.3159804 L6.1627451,39.3159804 Z" id="Shape"></path>
                    <path d="M16.2461765,11.3001961 C16.1967647,11.2480392 16.1301961,11.2082353 16.0629412,11.1855882 C15.9311765,11.1416667 15.8460784,11.1560784 15.7383333,11.192451 C15.6827451,11.1903922 15.6312745,11.1965686 15.5983333,11.2301961 C15.555098,11.2734314 15.5379412,11.2933333 15.5345098,11.3461765 C15.5290196,11.3516667 15.520098,11.3523529 15.5166667,11.3605882 C15.5166667,11.3612745 15.5159804,11.3619608 15.5159804,11.3626471 C15.4871569,11.4209804 15.6381373,11.4820588 15.6690196,11.4902941 C15.8151961,11.530098 16.1301961,11.6062745 16.2592157,11.4937255 C16.2736275,11.4793137 16.2777451,11.4628431 16.2701961,11.4436275 C16.2482353,11.3969608 16.2873529,11.3441176 16.2461765,11.3001961 L16.2461765,11.3001961 Z M15.6148039,11.3091176 C15.6141176,11.3091176 15.6141176,11.3091176 15.6148039,11.3091176 C15.6120588,11.3091176 15.6093137,11.3091176 15.6065686,11.3084314 C15.6093137,11.3084314 15.6120588,11.3084314 15.6148039,11.3091176 L15.6148039,11.3091176 Z" id="Shape"></path>
                    <path d="M11.9398039,11.6934314 C11.837549,11.6302941 11.717451,11.6282353 11.6014706,11.6282353 C11.5712745,11.6282353 11.4703922,11.6405882 11.4703922,11.69 L11.4703922,11.9569608 C11.4703922,12.0756863 11.7112745,12.1134314 11.8265686,12.1003922 C11.865,12.1017647 11.9006863,12.1003922 11.9295098,12.0942157 C12.0351961,12.0955882 12.1230392,12.0708824 12.0997059,12.012549 C12.0585294,11.9089216 12.0441176,11.7572549 11.9398039,11.6934314 L11.9398039,11.6934314 Z" id="Shape"></path>
                    <path d="M15.337549,27.9746078 C14.9923529,27.9869608 14.680098,28.0809804 14.3870588,28.2669608 C14.1729412,28.4021569 14.6361765,28.4282353 14.7404902,28.3623529 C14.8921569,28.2669608 15.0479412,28.1798039 15.2318627,28.1743137 C15.314902,28.1715686 15.4713725,28.159902 15.5180392,28.0741176 C15.5633333,27.9876471 15.3780392,27.9732353 15.337549,27.9746078 L15.337549,27.9746078 Z" id="Shape"></path>
                </g>
            </g>
        </g>
    </g>
</svg>